<svg id="496a9916-17ef-4123-81e4-c7f70adead4d" data-name="Reverse versions" xmlns="http://www.w3.org/2000/svg" viewBox="0 0 274.08 83.21"><title>VU_JAHL_stack_horz_R</title><rect width="274.08" height="83.21"/><path d="M17.32,57.38a2.43,2.43,0,0,0,2.29,1.4c1.44,0,2.12-.85,2.12-2.77V47.46h.83V56.1c0,1.91-.79,3.44-3,3.44a3.15,3.15,0,0,1-2.92-1.75Z" transform="translate(5.21 8.13)" fill="#fff"/><path d="M28.78,50.47c2.05,0,3.31,1.46,3.31,4a3.94,3.94,0,0,1,0,.65H25.83c0,2.18,1.31,3.75,3.26,3.75a3.83,3.83,0,0,0,2.32-.77l.32.61a4.81,4.81,0,0,1-2.72.85c-2.21,0-4-1.69-4-4.52S26.86,50.47,28.78,50.47Zm2.56,4c0-2.21-1-3.35-2.54-3.35s-2.79,1.28-3,3.35Z" transform="translate(5.21 8.13)" fill="#fff"/><path d="M39.18,53.91c0-1.31-.34-2.74-2-2.74a4.77,4.77,0,0,0-2.75,1L34,51.58a5.76,5.76,0,0,1,3.21-1.12c2.05,0,2.74,1.48,2.74,3.33v5.53h-.67l-.09-1.12h0a5.13,5.13,0,0,1-3.06,1.33,2.28,2.28,0,0,1-2.52-2.38C33.6,55.26,35.35,54.34,39.18,53.91Zm-2.93,5a4.53,4.53,0,0,0,2.93-1.4V54.52c-3.55.41-4.75,1.24-4.75,2.61A1.62,1.62,0,0,0,36.25,58.86Z" transform="translate(5.21 8.13)" fill="#fff"/><path d="M42.83,50.68h.68L43.58,52h.05a4.22,4.22,0,0,1,3-1.55c1.78,0,2.61,1.08,2.61,3.31v5.55h-.79V53.89c0-1.84-.58-2.7-2-2.7-1,0-1.76.54-2.83,1.62v6.52h-.79Z" transform="translate(5.21 8.13)" fill="#fff"/><path d="M64.18,59.54A9.25,9.25,0,0,1,61.64,58a4.45,4.45,0,0,1-3.24,1.49A3.21,3.21,0,0,1,55,56.32c0-1.57,1.19-2.58,2.43-3.49a7,7,0,0,1-.79-2.93,2.46,2.46,0,0,1,2.45-2.65,1.94,1.94,0,0,1,2,2.16c0,1.53-1.39,2.54-2.74,3.55A15.86,15.86,0,0,0,61.6,57a10.8,10.8,0,0,0,1.87-3.91h.77a12.76,12.76,0,0,1-2.11,4.36,8.45,8.45,0,0,0,2.3,1.37Zm-3.08-2a17.25,17.25,0,0,1-3.37-4.18c-1.06.83-1.94,1.69-1.94,2.86a2.57,2.57,0,0,0,2.68,2.59A3.78,3.78,0,0,0,61.1,57.58ZM58,52.38c1.21-.86,2.3-1.71,2.3-2.93,0-.77-.34-1.55-1.3-1.55a1.76,1.76,0,0,0-1.67,2A6,6,0,0,0,58,52.38Z" transform="translate(5.21 8.13)" fill="#fff"/><path d="M75.34,55.26h-4.7l-1.4,4.07h-.83l4.18-11.87h.83l4.18,11.87h-.86Zm-.23-.7-.76-2.21c-.49-1.4-.9-2.65-1.31-4.11H73c-.41,1.46-.83,2.7-1.31,4.11l-.76,2.21Z" transform="translate(5.21 8.13)" fill="#fff"/><path d="M79.34,46.38h.79v11.9c0,.38.16.56.38.56a1.39,1.39,0,0,0,.32,0l.14.65a1.69,1.69,0,0,1-.58.09c-.7,0-1.06-.43-1.06-1.37Z" transform="translate(5.21 8.13)" fill="#fff"/><path d="M86.35,50.47c2.05,0,3.31,1.46,3.31,4a3.94,3.94,0,0,1,0,.65H83.4c0,2.18,1.31,3.75,3.26,3.75A3.83,3.83,0,0,0,89,58.08l.32.61a4.81,4.81,0,0,1-2.72.85c-2.21,0-4-1.69-4-4.52S84.42,50.47,86.35,50.47Zm2.56,4c0-2.21-1-3.35-2.54-3.35s-2.79,1.28-3,3.35Z" transform="translate(5.21 8.13)" fill="#fff"/><path d="M93.66,54.81,91,50.68h.88l1.4,2.2c.29.47.59,1,.92,1.42h.07c.31-.47.58-1,.88-1.42l1.35-2.2h.83l-2.68,4.2,2.94,4.45h-.88L95.14,57c-.32-.54-.67-1.08-1-1.58H94c-.34.5-.65,1-1,1.58l-1.48,2.36h-.85Z" transform="translate(5.21 8.13)" fill="#fff"/><path d="M104.41,53.91c0-1.31-.34-2.74-2-2.74a4.77,4.77,0,0,0-2.75,1l-.36-.59a5.76,5.76,0,0,1,3.21-1.12c2.05,0,2.74,1.48,2.74,3.33v5.53h-.67l-.09-1.12h0a5.13,5.13,0,0,1-3.06,1.33,2.28,2.28,0,0,1-2.52-2.38C98.83,55.26,100.57,54.34,104.41,53.91Zm-2.93,5a4.53,4.53,0,0,0,2.93-1.4V54.52c-3.55.41-4.75,1.24-4.75,2.61A1.62,1.62,0,0,0,101.47,58.86Z" transform="translate(5.21 8.13)" fill="#fff"/><path d="M108.05,50.68h.68l.07,1.33h.05a4.22,4.22,0,0,1,3-1.55c1.78,0,2.61,1.08,2.61,3.31v5.55h-.79V53.89c0-1.84-.58-2.7-2-2.7-1,0-1.76.54-2.83,1.62v6.52h-.79Z" transform="translate(5.21 8.13)" fill="#fff"/><path d="M120.61,50.47a4,4,0,0,1,2.61,1.06l0-1.58V46.38H124V59.33h-.68l-.07-1.12h-.05a4,4,0,0,1-2.81,1.33c-2.18,0-3.58-1.6-3.58-4.52S118.56,50.47,120.61,50.47Zm-.14,8.37a3.9,3.9,0,0,0,2.72-1.42V52.29a3.65,3.65,0,0,0-2.52-1.12c-1.73,0-3,1.67-3,3.85S118.63,58.84,120.47,58.84Z" transform="translate(5.21 8.13)" fill="#fff"/><path d="M130.17,50.47c2.05,0,3.31,1.46,3.31,4a3.94,3.94,0,0,1,0,.65h-6.23c0,2.18,1.31,3.75,3.26,3.75a3.83,3.83,0,0,0,2.32-.77l.32.61a4.81,4.81,0,0,1-2.72.85c-2.21,0-4-1.69-4-4.52S128.24,50.47,130.17,50.47Zm2.56,4c0-2.21-1-3.35-2.54-3.35s-2.79,1.28-3,3.35Z" transform="translate(5.21 8.13)" fill="#fff"/><path d="M135.72,50.68h.68l.07,1.6h.05A3,3,0,0,1,139,50.47a1.77,1.77,0,0,1,.86.18l-.18.72a1.89,1.89,0,0,0-.79-.14c-.77,0-1.69.59-2.36,2.21v5.89h-.79Z" transform="translate(5.21 8.13)" fill="#fff"/><path d="M145.1,47.46h.83v5.2h6.36v-5.2h.83V59.33h-.83V53.38h-6.36v5.94h-.83Z" transform="translate(5.21 8.13)" fill="#fff"/><path d="M159.42,50.47c2.05,0,3.31,1.46,3.31,4a3.94,3.94,0,0,1,0,.65h-6.23c0,2.18,1.31,3.75,3.26,3.75a3.83,3.83,0,0,0,2.32-.77l.32.61a4.81,4.81,0,0,1-2.72.85c-2.21,0-4-1.69-4-4.52S157.49,50.47,159.42,50.47Zm2.56,4c0-2.21-1-3.35-2.54-3.35s-2.79,1.28-3,3.35Z" transform="translate(5.21 8.13)" fill="#fff"/><path d="M169.82,53.91c0-1.31-.34-2.74-2-2.74a4.77,4.77,0,0,0-2.75,1l-.36-.59a5.76,5.76,0,0,1,3.21-1.12c2.05,0,2.74,1.48,2.74,3.33v5.53h-.67l-.09-1.12h0a5.13,5.13,0,0,1-3.06,1.33,2.28,2.28,0,0,1-2.52-2.38C164.24,55.26,166,54.34,169.82,53.91Zm-2.93,5a4.53,4.53,0,0,0,2.93-1.4V54.52c-3.55.41-4.75,1.24-4.75,2.61A1.62,1.62,0,0,0,166.88,58.86Z" transform="translate(5.21 8.13)" fill="#fff"/><path d="M173.46,50.68h.68l.07,1.6h.05a3,3,0,0,1,2.45-1.82,1.77,1.77,0,0,1,.86.18l-.18.72a1.89,1.89,0,0,0-.79-.14c-.77,0-1.69.59-2.36,2.21v5.89h-.79Z" transform="translate(5.21 8.13)" fill="#fff"/><path d="M182.05,50.47a4,4,0,0,1,2.61,1.06l0-1.58V46.38h.79V59.33h-.68l-.07-1.12h-.05a4,4,0,0,1-2.81,1.33c-2.18,0-3.58-1.6-3.58-4.52S180,50.47,182.05,50.47Zm-.14,8.37a3.9,3.9,0,0,0,2.72-1.42V52.29a3.65,3.65,0,0,0-2.52-1.12c-1.73,0-3,1.67-3,3.85S180.07,58.84,181.91,58.84Z" transform="translate(5.21 8.13)" fill="#fff"/><path d="M192.4,47.46h.83V58.61h5.47v.72h-6.3Z" transform="translate(5.21 8.13)" fill="#fff"/><path d="M200.32,47.89a.72.72,0,1,1,.72.7A.69.69,0,0,1,200.32,47.89Zm.31,2.79h.79v8.64h-.79Z" transform="translate(5.21 8.13)" fill="#fff"/><path d="M204.39,46.38h.79v3.75l0,1.69a4.94,4.94,0,0,1,3-1.35c2.3,0,3.46,1.73,3.46,4.41,0,2.93-1.78,4.66-3.82,4.66a4.47,4.47,0,0,1-2.59-1h0l-.09.81h-.67Zm3.35,12.46c1.75,0,3-1.62,3-4,0-2.12-.76-3.71-2.74-3.71a4.53,4.53,0,0,0-2.83,1.42v5.13A4.15,4.15,0,0,0,207.73,58.84Z" transform="translate(5.21 8.13)" fill="#fff"/><path d="M214,50.68h.68l.07,1.6h.05a3,3,0,0,1,2.45-1.82,1.77,1.77,0,0,1,.86.18l-.18.72a1.89,1.89,0,0,0-.79-.14c-.77,0-1.69.59-2.36,2.21v5.89H214Z" transform="translate(5.21 8.13)" fill="#fff"/><path d="M224.88,53.91c0-1.31-.34-2.74-2-2.74a4.77,4.77,0,0,0-2.75,1l-.36-.59a5.76,5.76,0,0,1,3.21-1.12c2.05,0,2.74,1.48,2.74,3.33v5.53H225l-.09-1.12h0a5.13,5.13,0,0,1-3.06,1.33,2.28,2.28,0,0,1-2.52-2.38C219.3,55.26,221,54.34,224.88,53.91Zm-2.93,5a4.53,4.53,0,0,0,2.93-1.4V54.52c-3.55.41-4.75,1.24-4.75,2.61A1.62,1.62,0,0,0,221.95,58.86Z" transform="translate(5.21 8.13)" fill="#fff"/><path d="M228.53,50.68h.68l.07,1.6h.05a3,3,0,0,1,2.45-1.82,1.77,1.77,0,0,1,.86.18l-.18.72a1.89,1.89,0,0,0-.79-.14c-.77,0-1.69.59-2.36,2.21v5.89h-.79Z" transform="translate(5.21 8.13)" fill="#fff"/><path d="M234,47.89a.72.72,0,1,1,.72.7A.69.69,0,0,1,234,47.89Zm.31,2.79h.79v8.64h-.79Z" transform="translate(5.21 8.13)" fill="#fff"/><path d="M241.24,50.47c2.05,0,3.31,1.46,3.31,4a4,4,0,0,1,0,.65h-6.23c0,2.18,1.31,3.75,3.26,3.75a3.83,3.83,0,0,0,2.32-.77l.32.61a4.81,4.81,0,0,1-2.72.85c-2.21,0-4-1.69-4-4.52S239.31,50.47,241.24,50.47Zm2.56,4c0-2.21-1-3.35-2.54-3.35s-2.79,1.28-3,3.35Z" transform="translate(5.21 8.13)" fill="#fff"/><path d="M246.34,57.76a4,4,0,0,0,2.75,1.1c1.35,0,2.05-.79,2.05-1.71,0-1.08-1.12-1.55-2.11-1.91-1.31-.47-2.75-1-2.75-2.47,0-1.26,1-2.3,2.79-2.3a4,4,0,0,1,2.47.9l-.43.56a3.27,3.27,0,0,0-2.07-.77c-1.33,0-1.94.77-1.94,1.57,0,1,1,1.37,2,1.75,1.35.5,2.83,1,2.83,2.65,0,1.3-1,2.43-2.92,2.43a5,5,0,0,1-3.17-1.19Z" transform="translate(5.21 8.13)" fill="#fff"/><g id="292d5b4c-8ab6-4d28-8b2c-7d4daccf65bb" data-name="VU02b_R"><path d="M124,13.38h21.54V34.91H124Zm-.64,22.18h22.81V12.74H123.37Z" transform="translate(5.21 8.13)" fill="#fff"/><path d="M132.73,25.93c-.55-.2-.76-.37-.82-.94,0-.14,0-.34,0-.34s.11-.16.2-.27c.37-.44.63-.47,1.2-.33l.49.11a3.89,3.89,0,0,1-.16,1,3.81,3.81,0,0,1-.43.94l-.47-.18m3.09-9.74v1h.41c.4,0,1,0,1.2.22.44.46-.13.89-.66,1.59-.82,1.1-.31,1.81.23,1.43a14.12,14.12,0,0,1,1.33-.91c.69-.33,1.13.55.41,1.5-.28.39-.83.88-1.18,1.4s-.23,1.47.61.84,1.31.4.29,1.46-1.5,1.72-1.23,2.6c.1.32.22.67.33,1a.17.17,0,0,0,0,.05l0,0h-.67l-.67-1.81c-.1-.26-.24-.45-.88-.65l-.32-.09a.25.25,0,0,0-.24,0l-.41.31c-.39.28-.58.37-.74.33a.26.26,0,0,1-.19-.3v0a4.06,4.06,0,0,0,.6-2l0,0a.26.26,0,0,1,.32-.14c.16.06.27.23.44.68l.17.47a.27.27,0,0,0,.21.19l.54.16a.11.11,0,0,1,0,0l0,0a.16.16,0,0,1,0-.06l-.42-1.14a2.48,2.48,0,0,0-1-1.38c-.49-.35-1.24-.62-1.67-.87-1.3-.74-1.08-1.81-.34-1.77a6.17,6.17,0,0,1,1.39.42c.8.29.82-.69-.21-1.44-1.31-1-1.56-1.46-1.25-1.85.16-.21.61-.21,1.06-.21h.36c0-.26,0-.75,0-1h-8.64v1c.21,0,.38,0,.64,0,.72.07,1.27.42,1.85,1.89.5,1.33,4.65,11.84,5.08,13h4.21c.36-.92,4.42-11.34,5.07-13,.59-1.48,1.21-1.78,1.91-1.83l.54,0V16.2Z" transform="translate(5.21 8.13)" fill="#fff"/><path d="M157.86,25.08c0,1.57-.59,2.27-1.87,2.27s-1.91-.6-1.91-2.06c0-.91,0-1.83,0-2.72l0-1.88h-.83l0,1.89c0,.9,0,1.83,0,2.74,0,1.9.82,2.74,2.66,2.74,2.7,0,2.74-2.28,2.75-3l0-4.33h-.8Z" transform="translate(5.21 8.13)" fill="#fff"/><path d="M167.82,22.83c0,1,0,2,0,2.93,0,.32,0,.64,0,1-.2-.34-.42-.67-.68-1.05l-3.45-5.1-.06,0-.78.24-.06,7.11h.79v-.09s0-3.37,0-5c0-.31,0-.62,0-.92.21.37.45.72.67,1.05l3.45,5.1.84-.24.06-7.12h-.79Z" transform="translate(5.21 8.13)" fill="#fff"/><polygon points="178.88 28.82 178.14 28.82 178.07 36.07 178.91 36.07 178.97 28.82 178.88 28.82" fill="#fff"/><path d="M182.91,20.64l-2.25,5.64c-.08.21-.15.41-.21.6-.07-.22-.13-.41-.2-.59l-2.19-5.72-.82.26L180,27.94h.77l2.93-7.12-.77-.26Z" transform="translate(5.21 8.13)" fill="#fff"/><path d="M187.15,20.69l-.06,7.26h4v-.74h-3.12c0-.16,0-2.46,0-2.62H191v-.74H188c0-.16,0-2.26,0-2.42h3.07v-.74h-3.9Z" transform="translate(5.21 8.13)" fill="#fff"/><path d="M205.78,21.28a3,3,0,0,1,1.52.38l.07,0,.4-.65-.08,0a3.91,3.91,0,0,0-2-.43,2,2,0,0,0-2.14,1.88c0,1.26.94,1.71,1.78,2.1s1.44.68,1.44,1.52a1.26,1.26,0,0,1-1.42,1.25,3.31,3.31,0,0,1-1.6-.41l-.08,0-.41.66.07,0a4.18,4.18,0,0,0,2,.48,2.07,2.07,0,0,0,2.34-2c0-1.3-1-1.77-1.87-2.19-.73-.35-1.36-.64-1.36-1.33a1.21,1.21,0,0,1,1.3-1.22" transform="translate(5.21 8.13)" fill="#fff"/><polygon points="217.84 28.82 217.1 28.82 217.04 36.07 217.87 36.07 217.93 28.82 217.84 28.82" fill="#fff"/><path d="M216.53,20.69v.75h2.23c0,.17-.05,6.51-.05,6.51h.83s0-6.33.05-6.51h2.23v-.75h-5.3Z" transform="translate(5.21 8.13)" fill="#fff"/><path d="M229.58,20.56l-1.79,2.52-.52.76c-.1-.16-.28-.44-.44-.68L225,20.54l-.07,0-.66.34,2.53,3.71c0,.05,0,3.32,0,3.32h.83s0-3.34,0-3.4l2.63-3.63Z" transform="translate(5.21 8.13)" fill="#fff"/><path d="M196.58,24.71h0Zm2.29-2.11A1.49,1.49,0,0,1,197.26,24h-1.1c0-.16,0-2.53,0-2.68.4,0,.77,0,1.16,0,1,0,1.52.43,1.52,1.29m-.53,2.32h0a1.36,1.36,0,0,0-.39-.38,2.2,2.2,0,0,0,1.79-2c0-1.25-.83-1.92-2.39-1.92-.51,0-1,0-1.5.05l-.48,0v.08l-.06,7.18h.83s0-3.07,0-3.23h.45a1,1,0,0,1,.8.33c.14.18,2.12,2.93,2.14,3l0,.06.77-.35-.06-.09-2-2.7" transform="translate(5.21 8.13)" fill="#fff"/><path d="M45.6,20.7H45.1l-.46,0-.61,0h0l-.54,0h-.09v.48h.26c.47,0,.56.1.56.25a1.51,1.51,0,0,1-.13.54L42.47,26l-1.71-4.35a1.32,1.32,0,0,1-.08-.29c0-.08.12-.2.44-.2h.32V20.7h-.79l-.8,0-.78,0-.79,0h-.09v.48h.19a.69.69,0,0,1,.78.53l2.65,6.43h.49l0,0c.07-.17.41-1,1.05-2.55.53-1.28,1.62-4,1.68-4.05a.45.45,0,0,1,.46-.31h.19V20.7H45.6Z" transform="translate(5.21 8.13)" fill="#fff"/><path d="M49.77,24.72H48.1l.84-2.55.83,2.55m2.47,2.43c-.11-.24-.21-.54-.3-.83l-.07-.21v0S51.73,25.73,50,21l-.09-.25c0-.08-.08-.07-.15-.07h-.17l-.25,0h-.57l0,.07c-.06.24-.2.63-.33,1l-.06.15-.13.36L46.65,26.9a.84.84,0,0,1-.8.6H45.7V28h.22c.32,0,.64,0,1,0s.73,0,1.07,0h.25v-.47H48c-.2,0-.68,0-.68-.28a1.69,1.69,0,0,1,.11-.44l.11-.33.31-1H50l.38,1.12a3.47,3.47,0,0,1,.2.71c0,.21-.38.22-.49.22h-.2V28h.25c.42,0,.86,0,1.31,0s.84,0,1.24,0H53v-.48h-.15a.56.56,0,0,1-.59-.36" transform="translate(5.21 8.13)" fill="#fff"/><path d="M61.82,20.72h-.08l-.61,0-.71,0-.72,0h-.09v.48h.31c.29,0,.77.11.77.87,0,0,0,2.88,0,3.63l-4.4-5,0,0h0l-.46,0h-1l-.56,0h-.09v.44h.21a.75.75,0,0,1,.53.23.88.88,0,0,1,.25.63l0,4.29c0,.77-.12,1.22-.77,1.22h-.23V28h.09l.66,0h0l.67,0,.65,0h0l.65,0H57v-.48h-.26c-.66,0-.85-.25-.85-1.11l0-4L61,28.14h.52V28a6.64,6.64,0,0,1-.06-1l0-4.63c0-1.21.45-1.21.77-1.21h.24v-.46h-.62Z" transform="translate(5.21 8.13)" fill="#fff"/><path d="M70.07,24.51a3.12,3.12,0,0,1-.64,2,2.37,2.37,0,0,1-1.9.84c-.69,0-1-.07-1-.72V21.36h.08a5,5,0,0,1,.53,0,3,3,0,0,1,2,.61,3.29,3.29,0,0,1,.86,2.58m.49-2.82h0a4.47,4.47,0,0,0-3-1l-.62,0h0l-1,0-1.1,0h-.62v.48h.23c.42,0,.67.08.67.5V27c0,.46-.28.5-.62.5h-.23V28h.67l1,0c.83,0,1.63,0,1.85,0a3.6,3.6,0,0,0,2.71-1,3.69,3.69,0,0,0,1.16-2.67,3.39,3.39,0,0,0-1.11-2.63" transform="translate(5.21 8.13)" fill="#fff"/><path d="M78.79,26.22c-.15.55-.31.82-.57,1a3.07,3.07,0,0,1-1.25.13h0c-.72,0-1.16,0-1.16-.58V24.5H77c.62,0,.67.25.73.87v.1l.46-.1V25.3c0-.41,0-.73,0-1.1s0-.68,0-1.07V23h-.43v.07c-.06.54-.23.7-.76.7H75.79V21.38h1.33c1,0,1.09.33,1.14,1v.1l.45-.12v-.07a12.6,12.6,0,0,1,0-1.34V20.7h-.09l-1.17,0h-.09l-1.35,0-1.46,0-1.08,0h-.09v.48h.23c.42,0,.67.08.67.5V27c0,.44-.22.52-.6.52h-.23V28h1.12l1.6,0,1.56,0H79v-.07l.08-.56a9.91,9.91,0,0,1,.18-1l0-.09-.45-.11Z" transform="translate(5.21 8.13)" fill="#fff"/><path d="M94.44,25.92A1.39,1.39,0,0,1,93,27.38c-.72,0-.83-.1-.83-.78V24.38h.56a1.87,1.87,0,0,1,1.21.37,1.44,1.44,0,0,1,.47,1.17M92.6,23.79h-.42V21.3h.52c.63,0,1.28.15,1.28,1.28,0,.82-.45,1.21-1.38,1.21m1.51.21a1.69,1.69,0,0,0,1.41-1.62,1.45,1.45,0,0,0-.55-1.2,3,3,0,0,0-1.86-.49l-.73,0h-.05l-.85,0-.84,0h0l-.7,0h-.09v.48H90c.42,0,.67.08.67.5V27c0,.41-.24.49-.67.49h-.23V28h.83l1.06,0,1,0,.8,0a2.71,2.71,0,0,0,1.75-.61A1.93,1.93,0,0,0,96,25.88a1.72,1.72,0,0,0-.53-1.27A2.43,2.43,0,0,0,94.12,24" transform="translate(5.21 8.13)" fill="#fff"/><path d="M101.2,20.7h-.82l-.76,0-.78,0h-.05l-.67,0H98v.48h.23c.42,0,.67.08.67.5V27c0,.41-.24.5-.67.5H98V28h.09l.67,0,.83,0,.81,0h0l.75,0h.09v-.48h-.23c-.42,0-.67-.08-.67-.5V21.67c0-.41.25-.5.67-.5h.23V20.7h-.09Z" transform="translate(5.21 8.13)" fill="#fff"/><path d="M109,26.18a1.67,1.67,0,0,1-.28.61,1.29,1.29,0,0,1-.89.48,6.05,6.05,0,0,1-1.21,0c-.37,0-.53-.19-.53-.48V21.64c0-.46.23-.46.61-.46H107V20.7h-.09l-.74,0h0l-.77,0-.8,0-.81,0h-.09v.48h.23c.43,0,.68.08.68.5v5.23c0,.55-.32.6-.68.6h-.23V28h.09l1.31,0h0l1.34,0,1.28,0h0L109,28h.07v-.07c.08-.38.15-.73.22-1.11l.13-.69H109Z" transform="translate(5.21 8.13)" fill="#fff"/><path d="M85.43,22.67a1.64,1.64,0,0,1-.39,1.2,1.45,1.45,0,0,1-1.08.36l-.43,0V21.34h.05a3.34,3.34,0,0,1,.44,0,1.28,1.28,0,0,1,1.4,1.37m2,4.27-1.31-1.78a2.1,2.1,0,0,0-.57-.57,2.27,2.27,0,0,0,1.46-2,1.67,1.67,0,0,0-.77-1.53,3.34,3.34,0,0,0-1.74-.38h-.82l-.82,0-1,0h-.64v.48h.27c.35,0,.64.05.64.69V27c0,.44-.45.48-.59.48H81.2V28h.09L82,28l.7,0,.87,0h0l.85,0h.09v-.48h-.27c-.46,0-.75,0-.75-.73V24.83H84a.41.41,0,0,1,.36.2c.24.37.81,1.23,1.68,2.38a1.42,1.42,0,0,0,1.31.56H88.5v-.46h-.08a1,1,0,0,1-1-.57" transform="translate(5.21 8.13)" fill="#fff"/><path d="M116.51,20.67l-.23,0H110.9l-.54,0h0l-.38,0v.1a4.25,4.25,0,0,1,0,.61v.17l-.09.75v.08h.47l0-.06c.15-.75.17-.85.87-.85h1.37v5.31c0,.74-.23.77-.76.77h-.28V28h.77l1,0,.93,0h0l.7,0H115v-.48h-.28c-.45,0-.76-.06-.76-.79V21.43h1.42c.63,0,.66.56.68.86v.11l.47-.12v-.07l0-.81c0-.27,0-.51,0-.64v-.1h-.1Z" transform="translate(5.21 8.13)" fill="#fff"/></g></svg>