<svg id="jahl-logo" data-name="jahl-logo" role="img" xmlns="http://www.w3.org/2000/svg" width="342.76" height="22.67" viewBox="0 0 342.76 22.67"><title>Jean and Alexander Heard Libraries</title><path d="M123.07,26.82a2.43,2.43,0,0,0,2.29,1.4c1.44,0,2.13-.85,2.13-2.77V16.89h.83v8.64c0,1.91-.79,3.44-3,3.44a3.15,3.15,0,0,1-2.92-1.75Z" transform="translate(-14.95 -12.71)" fill="#fff"/><path d="M134.54,19.9c2.05,0,3.31,1.46,3.31,4a3.89,3.89,0,0,1,0,.65h-6.23c0,2.18,1.31,3.75,3.26,3.75a3.83,3.83,0,0,0,2.32-.77l.32.61a4.81,4.81,0,0,1-2.72.85c-2.21,0-4-1.69-4-4.52S132.61,19.9,134.54,19.9Zm2.56,4c0-2.21-1-3.35-2.54-3.35s-2.79,1.28-3,3.35Z" transform="translate(-14.95 -12.71)" fill="#fff"/><path d="M144.94,23.34c0-1.31-.34-2.74-2-2.74a4.77,4.77,0,0,0-2.75,1l-.36-.59A5.77,5.77,0,0,1,143,19.9c2.05,0,2.74,1.48,2.74,3.33v5.53h-.67L145,27.64h0A5.13,5.13,0,0,1,141.88,29a2.28,2.28,0,0,1-2.52-2.38C139.36,24.69,141.1,23.77,144.94,23.34Zm-2.93,5a4.52,4.52,0,0,0,2.93-1.4V24c-3.55.41-4.75,1.24-4.75,2.61A1.62,1.62,0,0,0,142,28.29Z" transform="translate(-14.95 -12.71)" fill="#fff"/><path d="M148.58,20.12h.68l.07,1.33h.05a4.22,4.22,0,0,1,3-1.55c1.78,0,2.61,1.08,2.61,3.31v5.55h-.79V23.32c0-1.84-.58-2.7-2-2.7-1,0-1.76.54-2.83,1.62v6.52h-.79Z" transform="translate(-14.95 -12.71)" fill="#fff"/><path d="M169.94,29a9.24,9.24,0,0,1-2.54-1.49A4.44,4.44,0,0,1,164.16,29a3.21,3.21,0,0,1-3.42-3.22c0-1.57,1.19-2.58,2.43-3.49a7,7,0,0,1-.79-2.93,2.46,2.46,0,0,1,2.45-2.65,1.94,1.94,0,0,1,2,2.16c0,1.53-1.39,2.54-2.74,3.55a15.85,15.85,0,0,0,3.29,4.07,10.81,10.81,0,0,0,1.87-3.91H170a12.75,12.75,0,0,1-2.11,4.36,8.46,8.46,0,0,0,2.3,1.37Zm-3.08-2a17.25,17.25,0,0,1-3.37-4.18c-1.06.83-1.94,1.69-1.94,2.86a2.57,2.57,0,0,0,2.68,2.59A3.78,3.78,0,0,0,166.86,27Zm-3.08-5.2c1.21-.86,2.3-1.71,2.3-2.93,0-.77-.34-1.55-1.3-1.55a1.76,1.76,0,0,0-1.67,2A6,6,0,0,0,163.78,21.81Z" transform="translate(-14.95 -12.71)" fill="#fff"/><path d="M181.09,24.69h-4.7L175,28.76h-.83l4.18-11.87h.83l4.18,11.87h-.86Zm-.23-.7-.76-2.21c-.49-1.4-.9-2.65-1.31-4.11h-.07c-.41,1.46-.83,2.7-1.31,4.11L176.65,24Z" transform="translate(-14.95 -12.71)" fill="#fff"/><path d="M185.1,15.81h.79v11.9c0,.38.16.56.38.56a1.39,1.39,0,0,0,.32,0l.14.65a1.69,1.69,0,0,1-.58.09c-.7,0-1.06-.43-1.06-1.37Z" transform="translate(-14.95 -12.71)" fill="#fff"/><path d="M192.11,19.9c2.05,0,3.31,1.46,3.31,4a4,4,0,0,1,0,.65h-6.23c0,2.18,1.31,3.75,3.26,3.75a3.83,3.83,0,0,0,2.32-.77l.32.61a4.81,4.81,0,0,1-2.72.85c-2.21,0-4-1.69-4-4.52S190.18,19.9,192.11,19.9Zm2.56,4c0-2.21-1-3.35-2.54-3.35s-2.79,1.28-3,3.35Z" transform="translate(-14.95 -12.71)" fill="#fff"/><path d="M199.42,24.24l-2.7-4.12h.88l1.4,2.2c.29.47.59,1,.92,1.42H200c.31-.47.58-1,.88-1.42l1.35-2.2h.83l-2.68,4.2,2.93,4.45h-.88L200.9,26.4c-.32-.54-.67-1.08-1-1.58h-.07c-.34.5-.65,1-1,1.58l-1.48,2.36h-.85Z" transform="translate(-14.95 -12.71)" fill="#fff"/><path d="M210.16,23.34c0-1.31-.34-2.74-2-2.74a4.77,4.77,0,0,0-2.75,1L205,21a5.77,5.77,0,0,1,3.21-1.12c2.05,0,2.74,1.48,2.74,3.33v5.53h-.67l-.09-1.12h0A5.13,5.13,0,0,1,207.1,29a2.28,2.28,0,0,1-2.52-2.38C204.58,24.69,206.33,23.77,210.16,23.34Zm-2.93,5a4.52,4.52,0,0,0,2.93-1.4V24c-3.55.41-4.75,1.24-4.75,2.61A1.62,1.62,0,0,0,207.23,28.29Z" transform="translate(-14.95 -12.71)" fill="#fff"/><path d="M213.81,20.12h.68l.07,1.33h.05a4.22,4.22,0,0,1,3-1.55c1.78,0,2.61,1.08,2.61,3.31v5.55h-.79V23.32c0-1.84-.58-2.7-2-2.7-1,0-1.76.54-2.83,1.62v6.52h-.79Z" transform="translate(-14.95 -12.71)" fill="#fff"/><path d="M226.37,19.9A4,4,0,0,1,229,21l0-1.58V15.81h.79V28.76h-.68L229,27.64h-.05A4,4,0,0,1,226.12,29c-2.18,0-3.58-1.6-3.58-4.52S224.32,19.9,226.37,19.9Zm-.14,8.37a3.9,3.9,0,0,0,2.72-1.42V21.72a3.65,3.65,0,0,0-2.52-1.12c-1.73,0-3,1.67-3,3.85S224.39,28.27,226.22,28.27Z" transform="translate(-14.95 -12.71)" fill="#fff"/><path d="M235.92,19.9c2.05,0,3.31,1.46,3.31,4a4,4,0,0,1,0,.65H233c0,2.18,1.31,3.75,3.26,3.75a3.83,3.83,0,0,0,2.32-.77l.32.61a4.81,4.81,0,0,1-2.72.85c-2.21,0-4-1.69-4-4.52S234,19.9,235.92,19.9Zm2.56,4c0-2.21-1-3.35-2.54-3.35s-2.79,1.28-3,3.35Z" transform="translate(-14.95 -12.71)" fill="#fff"/><path d="M241.47,20.12h.68l.07,1.6h.05a3,3,0,0,1,2.45-1.82,1.77,1.77,0,0,1,.86.18l-.18.72a1.89,1.89,0,0,0-.79-.14c-.77,0-1.69.59-2.36,2.21v5.89h-.79Z" transform="translate(-14.95 -12.71)" fill="#fff"/><path d="M250.85,16.89h.83v5.2H258v-5.2h.83V28.76H258V22.82h-6.36v5.94h-.83Z" transform="translate(-14.95 -12.71)" fill="#fff"/><path d="M265.17,19.9c2.05,0,3.31,1.46,3.31,4a4,4,0,0,1,0,.65h-6.23c0,2.18,1.31,3.75,3.26,3.75a3.83,3.83,0,0,0,2.32-.77l.32.61a4.81,4.81,0,0,1-2.72.85c-2.21,0-4-1.69-4-4.52S263.25,19.9,265.17,19.9Zm2.56,4c0-2.21-1-3.35-2.54-3.35s-2.79,1.28-3,3.35Z" transform="translate(-14.95 -12.71)" fill="#fff"/><path d="M275.57,23.34c0-1.31-.34-2.74-2-2.74a4.77,4.77,0,0,0-2.75,1l-.36-.59a5.76,5.76,0,0,1,3.21-1.12c2.05,0,2.74,1.48,2.74,3.33v5.53h-.67l-.09-1.12h0A5.13,5.13,0,0,1,272.51,29,2.28,2.28,0,0,1,270,26.6C270,24.69,271.74,23.77,275.57,23.34Zm-2.93,5a4.53,4.53,0,0,0,2.93-1.4V24c-3.55.41-4.75,1.24-4.75,2.61A1.62,1.62,0,0,0,272.64,28.29Z" transform="translate(-14.95 -12.71)" fill="#fff"/><path d="M279.22,20.12h.68l.07,1.6H280a3,3,0,0,1,2.45-1.82,1.77,1.77,0,0,1,.86.18l-.18.72a1.89,1.89,0,0,0-.79-.14c-.77,0-1.69.59-2.36,2.21v5.89h-.79Z" transform="translate(-14.95 -12.71)" fill="#fff"/><path d="M287.81,19.9A4,4,0,0,1,290.42,21l0-1.58V15.81h.79V28.76h-.68l-.07-1.12h-.05A4,4,0,0,1,287.56,29c-2.18,0-3.58-1.6-3.58-4.52S285.76,19.9,287.81,19.9Zm-.14,8.37a3.9,3.9,0,0,0,2.72-1.42V21.72a3.65,3.65,0,0,0-2.52-1.12c-1.73,0-3,1.67-3,3.85S285.83,28.27,287.67,28.27Z" transform="translate(-14.95 -12.71)" fill="#fff"/><path d="M298.16,16.89H299V28h5.47v.72h-6.3Z" transform="translate(-14.95 -12.71)" fill="#fff"/><path d="M306.07,17.33a.72.72,0,1,1,.72.7A.69.69,0,0,1,306.07,17.33Zm.31,2.79h.79v8.64h-.79Z" transform="translate(-14.95 -12.71)" fill="#fff"/><path d="M310.14,15.81h.79v3.75l0,1.69a4.93,4.93,0,0,1,3-1.35c2.3,0,3.46,1.73,3.46,4.41,0,2.93-1.78,4.66-3.82,4.66a4.47,4.47,0,0,1-2.59-1h0l-.09.81h-.67Zm3.35,12.46c1.75,0,3-1.62,3-4,0-2.12-.76-3.71-2.74-3.71A4.53,4.53,0,0,0,310.93,22v5.13A4.15,4.15,0,0,0,313.49,28.27Z" transform="translate(-14.95 -12.71)" fill="#fff"/><path d="M319.79,20.12h.68l.07,1.6h.05a3,3,0,0,1,2.45-1.82,1.77,1.77,0,0,1,.86.18l-.18.72a1.89,1.89,0,0,0-.79-.14c-.77,0-1.69.59-2.36,2.21v5.89h-.79Z" transform="translate(-14.95 -12.71)" fill="#fff"/><path d="M330.64,23.34c0-1.31-.34-2.74-2-2.74a4.77,4.77,0,0,0-2.75,1l-.36-.59a5.77,5.77,0,0,1,3.21-1.12c2.05,0,2.74,1.48,2.74,3.33v5.53h-.67l-.09-1.12h0A5.13,5.13,0,0,1,327.58,29a2.28,2.28,0,0,1-2.52-2.38C325.06,24.69,326.8,23.77,330.64,23.34Zm-2.93,5a4.52,4.52,0,0,0,2.93-1.4V24c-3.55.41-4.75,1.24-4.75,2.61A1.62,1.62,0,0,0,327.7,28.29Z" transform="translate(-14.95 -12.71)" fill="#fff"/><path d="M334.28,20.12H335l.07,1.6h.05a3,3,0,0,1,2.45-1.82,1.77,1.77,0,0,1,.86.18l-.18.72a1.89,1.89,0,0,0-.79-.14c-.77,0-1.69.59-2.36,2.21v5.89h-.79Z" transform="translate(-14.95 -12.71)" fill="#fff"/><path d="M339.78,17.33a.72.72,0,1,1,.72.7A.69.69,0,0,1,339.78,17.33Zm.31,2.79h.79v8.64h-.79Z" transform="translate(-14.95 -12.71)" fill="#fff"/><path d="M347,19.9c2.05,0,3.31,1.46,3.31,4a3.89,3.89,0,0,1,0,.65H344c0,2.18,1.31,3.75,3.26,3.75a3.83,3.83,0,0,0,2.32-.77l.32.61a4.81,4.81,0,0,1-2.72.85c-2.21,0-4-1.69-4-4.52S345.07,19.9,347,19.9Zm2.56,4c0-2.21-1-3.35-2.54-3.35s-2.79,1.28-3,3.35Z" transform="translate(-14.95 -12.71)" fill="#fff"/><path d="M352.09,27.19a4,4,0,0,0,2.75,1.1c1.35,0,2.05-.79,2.05-1.71,0-1.08-1.12-1.55-2.11-1.91-1.31-.47-2.75-1-2.75-2.47,0-1.26,1-2.3,2.79-2.3a4,4,0,0,1,2.47.9l-.43.56a3.27,3.27,0,0,0-2.07-.77c-1.33,0-1.94.77-1.94,1.57,0,1,1,1.37,2,1.75,1.35.5,2.83,1,2.83,2.65,0,1.3-1,2.43-2.92,2.43a5,5,0,0,1-3.17-1.19Z" transform="translate(-14.95 -12.71)" fill="#fff"/><g id="VU_07a_white" data-name="VU®07a white"><line x1="97.77" y1="0.05" x2="97.77" y2="22.67" fill="none" stroke="#fff" stroke-width="0.6"/><path d="M47.76,29.77c0,1.19-.45,1.73-1.42,1.73s-1.45-.45-1.45-1.56c0-.69,0-1.39,0-2.06V26.43h-.63V27.9c0,.67,0,1.36,0,2,0,1.44.62,2.09,2,2.09s2.08-.71,2.09-2.31l0-3.3h-.61Z" transform="translate(-14.95 -12.71)" fill="#fff"/><path d="M55.34,28.07c0,.73,0,1.49,0,2.23,0,.25,0,.49,0,.74-.17-.29-.35-.56-.52-.81L52.2,26.35h0l-.59.18,0,5.41h.6v-.07s0-2.56,0-3.83c0-.24,0-.47,0-.7.16.28.34.55.51.8L55.27,32l.64-.18,0-5.42h-.6Z" transform="translate(-14.95 -12.71)" fill="#fff"/><polygon points="44.84 13.72 44.27 13.72 44.23 19.24 44.86 19.24 44.91 13.72 44.84 13.72" fill="#fff"/><path d="M66.83,26.39l-1.72,4.29c-.07.17-.12.31-.16.45-.05-.17-.1-.31-.15-.44l-1.67-4.36-.63.2,2.12,5.42h.59l2.23-5.42-.59-.2Z" transform="translate(-14.95 -12.71)" fill="#fff"/><path d="M70.06,26.43l0,5.52h3v-.56H70.65c0-.12,0-1.87,0-2H73v-.56H70.67c0-.12,0-1.72,0-1.84H73v-.56h-3Z" transform="translate(-14.95 -12.71)" fill="#fff"/><path d="M84.23,26.88a2.29,2.29,0,0,1,1.16.29l.05,0,.3-.5-.06,0a3,3,0,0,0-1.49-.33,1.49,1.49,0,0,0-1.63,1.43c0,1,.72,1.3,1.35,1.6s1.1.52,1.1,1.16a1,1,0,0,1-1.08,1,2.52,2.52,0,0,1-1.22-.31l-.06,0-.31.5.05,0a3.17,3.17,0,0,0,1.51.36,1.57,1.57,0,0,0,1.78-1.55c0-1-.76-1.35-1.42-1.66s-1-.49-1-1a.92.92,0,0,1,1-.93" transform="translate(-14.95 -12.71)" fill="#fff"/><polygon points="74.5 13.72 73.93 13.72 73.88 19.24 74.52 19.24 74.56 13.72 74.5 13.72" fill="#fff"/><path d="M92.42,26.43V27h1.7l0,5h.63l0-5h1.7v-.57h-4Z" transform="translate(-14.95 -12.71)" fill="#fff"/><path d="M101,28.25l-.4.58-.34-.52-1.36-2-.05,0-.5.26,1.93,2.82s0,2.53,0,2.53h.63s0-2.55,0-2.59l2-2.76-.54-.27Z" transform="translate(-14.95 -12.71)" fill="#fff"/><path d="M79,27.88A1.13,1.13,0,0,1,77.75,29h-.84c0-.12,0-1.92,0-2l.89,0c.77,0,1.16.33,1.16,1m-.71,1.48a1.67,1.67,0,0,0,1.37-1.53c0-1-.63-1.46-1.82-1.46-.39,0-.77,0-1.15,0l-.36,0v.06l0,5.46h.63s0-2.34,0-2.46h.34a.75.75,0,0,1,.61.25L79.49,32l0,0,.59-.27-1.54-2.12a1.1,1.1,0,0,0-.3-.29" transform="translate(-14.95 -12.71)" fill="#fff"/><path d="M78.57,29.65h0Z" transform="translate(-14.95 -12.71)" fill="#fff"/><path d="M49,16.16l-.36,0h-.38l-.49,0h-.48v.36h.2c.36,0,.43.07.43.19a1.16,1.16,0,0,1-.1.41l-1.22,3.09-1.3-3.31a1.1,1.1,0,0,1-.06-.22c0-.07.12-.15.34-.15h.24v-.36h-.51l-.7,0H43.4v.36h.14a.51.51,0,0,1,.59.4l2,4.89h.37l0,0,.65-1.57.15-.37c.4-1,1.23-3,1.28-3.08a.34.34,0,0,1,.35-.24h.14v-.36H49Z" transform="translate(-14.95 -12.71)" fill="#fff"/><path d="M50.95,19.23l.64-1.94.63,1.94Zm-.59,1.91a1.23,1.23,0,0,1,.08-.33h0l.08-.25.23-.76h1.66l.29.85a2.6,2.6,0,0,1,.15.54c0,.16-.29.17-.38.17h-.15v.36h.25l.94,0c.37,0,.72,0,1.06,0h.08v-.37h-.11a.43.43,0,0,1-.45-.27c-.08-.19-.16-.42-.24-.65l0-.14-1.39-3.93h0l-.07-.2c0-.06-.06-.06-.11-.05h-.75v.05c0,.18-.16.48-.25.74l0,.12-.1.28-1.24,3.56a.64.64,0,0,1-.61.46h-.11v.37h.07c.27,0,.55,0,.83,0s.63,0,.92,0H51v-.36h-.15c-.16,0-.52,0-.52-.22" transform="translate(-14.95 -12.71)" fill="#fff"/><path d="M61.33,16.18h-.47l-.54,0h-.61v.36h.24c.22,0,.59.09.59.66,0,0,0,2.19,0,2.77l-3.37-3.79H55.55v.34h.16a.57.57,0,0,1,.4.17.66.66,0,0,1,.19.48l0,3.26c0,.59-.1.93-.59.93h-.17v.35h2.16v-.36h-.2c-.5,0-.64-.19-.64-.84,0,0,0-2.41,0-3l3.88,4.32,0,0h.4v-.08a5.08,5.08,0,0,1,0-.77l0-3.53c0-.92.34-.92.59-.92h.18v-.35h-.54" transform="translate(-14.95 -12.71)" fill="#fff"/><path d="M67.67,19.07a2.37,2.37,0,0,1-.49,1.51,1.8,1.8,0,0,1-1.44.64c-.53,0-.74,0-.74-.55v-4h.08l.38,0A2.26,2.26,0,0,1,67,17.1a2.51,2.51,0,0,1,.65,2M68,16.92a3.4,3.4,0,0,0-2.3-.75h-.57l-.68,0-.8,0h-.51v.36h.17c.32,0,.51.06.51.38V21c0,.35-.21.38-.47.38h-.17v.35h.42l.89,0c.53,0,1.07,0,1.41,0A2.75,2.75,0,0,0,68,21a2.81,2.81,0,0,0,.88-2,2.58,2.58,0,0,0-.85-2" transform="translate(-14.95 -12.71)" fill="#fff"/><path d="M74.31,20.36c-.11.42-.23.63-.43.73a2.32,2.32,0,0,1-1,.1h0c-.55,0-.88,0-.88-.44v-1.7h.89c.47,0,.51.19.55.66h0v.06l.34-.07v-.05c0-.32,0-.57,0-.84s0-.51,0-.82v-.07h-.33V18c0,.41-.18.53-.58.53H72V16.68h1c.77,0,.83.26.87.74v.08l.34-.09v-.05a10,10,0,0,1,0-1v-.2h-1l-1.08,0-1.07,0h-.92v.36h.18c.32,0,.51.06.51.38V21c0,.33-.17.4-.45.4h-.17v.34h4.18v-.06l.06-.42a7.15,7.15,0,0,1,.14-.78h0v-.05l-.34-.09Z" transform="translate(-14.95 -12.71)" fill="#fff"/><path d="M86.21,20.14a1.06,1.06,0,0,1-1.08,1.11c-.55,0-.63-.08-.63-.59V19h.43a1.43,1.43,0,0,1,.93.28,1.1,1.1,0,0,1,.36.89m-1.39-1.62H84.5V16.62h.4c.48,0,1,.12,1,1,0,.62-.34.92-1.05.92m1.15.16A1.29,1.29,0,0,0,87,17.45a1.1,1.1,0,0,0-.42-.91,2.26,2.26,0,0,0-1.41-.37h-.56l-.68,0-.66,0H82.7v.36h.17c.32,0,.51.06.51.38V21c0,.31-.19.38-.51.38H82.7v.36h.66l.78,0,.75,0h.61a2.07,2.07,0,0,0,1.34-.47,1.48,1.48,0,0,0,.56-1.13,1.31,1.31,0,0,0-.4-1,1.86,1.86,0,0,0-1-.47" transform="translate(-14.95 -12.71)" fill="#fff"/><path d="M91.36,16.16l-.59,0h-.62l-.62,0h-.59v.36h.17c.32,0,.51.06.51.38V21c0,.31-.19.38-.51.38h-.17v.36h.58l.63,0h1.28v-.36h-.17c-.32,0-.51-.06-.51-.38V16.9c0-.32.19-.38.51-.38h.17v-.36h-.07Z" transform="translate(-14.95 -12.71)" fill="#fff"/><path d="M97.28,20.34a1.27,1.27,0,0,1-.21.46,1,1,0,0,1-.68.37,4.64,4.64,0,0,1-.92,0c-.29,0-.4-.14-.4-.37V16.88c0-.35.17-.35.46-.35h.26v-.36h-.66l-.59,0-.61,0h-.68v.36h.17c.33,0,.52.06.52.38v4c0,.42-.24.45-.52.45h-.17v.36h1.09l1,0,1,0h1v-.05c.06-.3.11-.57.16-.84l.1-.53h-.36Z" transform="translate(-14.95 -12.71)" fill="#fff"/><path d="M79.36,17.67a1.25,1.25,0,0,1-.3.92,1.11,1.11,0,0,1-.82.27l-.33,0V16.65h0l.34,0a1,1,0,0,1,1.07,1m1.49,3.25-.59-.81-.4-.55a1.61,1.61,0,0,0-.44-.43,1.73,1.73,0,0,0,1.11-1.51,1.27,1.27,0,0,0-.59-1.16,2.53,2.53,0,0,0-1.32-.29H78l-.66,0-.78,0h-.49v.36h.2c.26,0,.48,0,.48.52V21c0,.34-.35.36-.45.36h-.2v.35h.62l.53,0,.66,0h.74v-.36h-.2c-.35,0-.57,0-.57-.55V19.31h.35a.32.32,0,0,1,.27.15c.31.47.7,1,1.28,1.81a1.08,1.08,0,0,0,1,.42h.88v-.35h-.07a.77.77,0,0,1-.78-.44" transform="translate(-14.95 -12.71)" fill="#fff"/><path d="M103,16.14H98.75l-.44,0h0l-.23,0H98v.09a3.21,3.21,0,0,1,0,.45v0l-.08.63v.08h.37v-.05c.11-.55.13-.64.66-.64h1v4c0,.56-.18.59-.58.59h-.21v.36h1.38l.67,0h.66v-.36h-.21c-.34,0-.58,0-.58-.6v-4h1.08c.48,0,.51.43.52.66v.08l.36-.09V16.7c0-.15,0-.32,0-.49v-.08Z" transform="translate(-14.95 -12.71)" fill="#fff"/><path d="M24.23,25.78c-.55-.2-.75-.36-.82-.93,0-.14,0-.34,0-.34s.11-.16.2-.27c.36-.44.63-.46,1.19-.33l.49.11A3.75,3.75,0,0,1,24.7,26l-.47-.18m3.06-9.65v1h.4c.4,0,1,0,1.19.22.43.46-.13.88-.65,1.58-.82,1.09-.31,1.8.23,1.42a14,14,0,0,1,1.31-.9c.68-.32,1.12.54.41,1.48-.28.39-.82.87-1.17,1.39s-.23,1.45.6.83,1.29.4.28,1.44-1.49,1.71-1.22,2.58c.1.32.22.66.33,1a.16.16,0,0,0,0,.05l0,0h-.67l-.66-1.79c-.1-.26-.23-.45-.87-.64l-.31-.09a.25.25,0,0,0-.24,0l-.41.3c-.38.28-.57.37-.73.33a.26.26,0,0,1-.19-.29v0a4,4,0,0,0,.59-2l0,0a.26.26,0,0,1,.32-.14c.16.06.27.23.43.68l.17.46a.26.26,0,0,0,.21.19l.54.16.05,0,0,0a.17.17,0,0,1,0-.05l-.42-1.13a2.46,2.46,0,0,0-.95-1.37c-.49-.35-1.23-.62-1.66-.86-1.29-.73-1.07-1.79-.34-1.75a6,6,0,0,1,1.38.42c.79.29.81-.68-.21-1.43-1.3-1-1.55-1.45-1.24-1.84.16-.21.61-.21,1-.2h.36c0-.26,0-.75,0-1H16.7v1a6.28,6.28,0,0,1,.63,0c.72.06,1.26.41,1.83,1.87.5,1.31,4.61,11.73,5,12.84h4.17c.36-.92,4.38-11.23,5-12.88.58-1.47,1.2-1.76,1.9-1.82l.54,0v-1Z" transform="translate(-14.95 -12.71)" fill="#fff"/><path d="M15.59,13.34H36.92V34.68H15.59Zm-.63,22h22.6V12.71H15Z" transform="translate(-14.95 -12.71)" fill="#fff"/></g></svg>